<svg width="468" height="137" viewBox="0 0 468 137" fill="none" xmlns="http://www.w3.org/2000/svg">
<path d="M106.279 86.2579C107.091 87.8251 106.747 89.3971 106.107 90.8986C101.859 100.714 93.6924 117.522 82.4326 118.796C76.9898 119.369 73.425 117.175 71.2601 112.257C66.4474 101.307 76.7594 84.7932 79.4564 73.7641C77.631 73.8275 70.6627 83.3992 64.3436 93.7815C58.1117 104.06 52.5289 115.149 50.3603 119C48.4117 122.062 48.3495 122.453 45.2056 121.764C42.9474 121.287 39.5619 120.041 38.9451 117.397C38.3451 114.944 39.8227 109.804 41.9112 103.935C45.6566 93.8745 50.9309 81.4636 51.7511 75.4171C42.8415 78.2203 26.7614 109.212 21.9269 120.042C19.6759 125.154 18.325 126.236 16.8738 126.17C14.7363 125.972 11.5709 123.936 9.62829 122.66C7.68573 121.385 6.97805 119.905 9.25303 112.864C11.2459 107.004 13.2925 100.657 15.4432 94.3978C18.1462 86.7411 20.6578 79.1011 23.5317 72.2967C24.6614 69.7887 25.5533 65.6633 29.6572 65.2079C31.7528 64.9282 34.7223 65.8248 36.7605 67.092C39.5972 68.6747 38.6994 69.4278 37.7072 72.4057L33.4262 84.0551C33.4597 84.4376 33.6677 84.6122 33.8506 84.4998C36.5116 84.0743 47.5074 63.2607 60.1312 62.1563C63.0003 61.9053 65.6242 62.1575 67.9254 65.329C70.6509 68.9453 66.5015 77.6922 65.8249 79.8715C67.3048 79.1638 68.5804 77.2212 69.8977 75.7568C72.0962 73.3481 74.1404 70.2782 75.7985 68.3022C80.0746 63.2061 84.9042 58.9289 90.7929 60.1483C97.2721 61.5088 96.697 67.052 94.4006 72.7458C93.2087 75.6447 88.5655 86.4585 85.364 95.0262C82.7687 101.71 80.9133 108.04 84.2115 109.389C91.4438 111.648 99.1318 94.8817 101.915 89.2417C102.808 87.3326 104.1 85.5813 106.279 86.2579ZM139.679 37.2725C140.443 42.6986 137.002 47.4325 132.991 48.9399C121.878 52.9958 115.673 34.94 129.23 30.1883C134.564 28.3725 138.932 32.0377 139.679 37.2725ZM135.36 85.9302C136.34 83.9171 137.536 82.1741 139.82 82.938C140.623 84.4096 140.287 86.0773 139.648 87.5787C138.194 90.7896 135.535 95.6478 133.761 98.5013C131.821 101.658 129.968 104.712 127.699 107.416C123.851 111.896 118.639 116.207 112.622 116.829C105.075 117.586 99.5656 109.684 98.7803 102.911C98.0368 96.6157 102.772 86.8539 105.679 80.432C108.429 74.4095 111.083 68.3953 114.743 62.8712C116.281 60.6167 118.25 56.6861 122.325 57.0041C124.454 57.107 126.658 58.0705 128.53 59.6413C131.226 61.8147 130.291 63.2456 128.517 66.0991C123.274 74.4599 119.527 82.3042 115.856 91.0093C112.28 99.7061 110.301 106.818 115.731 107.21C121.458 107.673 126.88 100.26 129.685 95.967C132.07 92.3855 134.055 88.6462 135.36 85.9302ZM183.386 79.0302C185.425 74.8043 188.558 78.674 187.595 80.8783L187.113 81.9805C180.97 94.3711 167.215 111.186 152.807 112.832C138.313 114.582 128.949 100.079 138.036 78.3722C140.428 72.67 143.901 66.1023 149.133 60.9226C154.993 55.2061 162.168 51.3019 169.857 52.171C177.85 53.2064 180.591 62.5069 176.245 70.1145C175.082 72.24 172.568 75.4473 168.889 76.3474C167.288 76.7766 166.177 76.1992 167.353 73.109C168.308 70.809 168.855 68.2556 169.062 66.2138C169.442 61.7476 168.718 60.0764 167.179 60.1146C160.801 59.9018 150.714 78.9975 149.524 91.8221C148.858 98.5297 150.17 103.619 156.803 103.424C168.042 103.019 178.991 88.2804 183.386 79.0302ZM234.77 74.631C235.573 76.1026 235.237 77.7702 234.598 79.2716C233.24 82.4742 230.581 87.3324 228.711 90.1942C223.834 98.3303 217.884 107.427 207.572 108.522C199.078 109.458 191.37 103.965 193.055 91.2901C194.128 82.6196 198.551 72.5959 200.847 66.9021C201.715 64.7061 203.451 60.3141 203.496 59.7319C202.219 57.2418 201.187 56.4648 200.43 56.6274C198.622 56.882 189.174 79.9693 185.829 84.6948C184.998 86.213 183.976 87.7479 182.737 89.0126C181.578 90.0778 176.469 92.2594 179.946 86.8477C181.093 84.5309 182.879 80.7128 183.597 79.0117C184.552 76.7117 185.42 74.5157 186.288 72.3197C187.542 69.0298 188.701 65.7484 189.772 62.5709C191.316 58.1957 192.428 53.2801 193.191 48.7805C193.962 44.3765 194.458 39.0329 200.03 38.8345C203.768 38.6039 203.898 41.1944 203.983 44.3671C203.956 47.3568 204.537 52.8953 206.466 52.9192C208.674 52.8224 210.486 51.5074 212.141 50.5918C215.267 48.8728 218.396 46.0934 222.087 49.7216C225.136 52.6349 225.087 54.2774 223.907 56.2116C223.139 57.3389 221.739 60.0633 220.629 61.7022C219.196 64.044 210.768 81.1637 208.611 91.76C207.516 96.8669 207.922 100.397 211.077 100.121C216.624 99.6356 222.072 92.5097 224.685 88.2337C227.053 84.4609 228.918 80.4431 230.405 77.6147C231.386 75.6016 232.582 73.8587 234.77 74.631ZM289.042 68.2446C290.69 63.9566 293.894 67.531 293.33 69.8931C291.815 75.7113 286.106 83.1492 278.055 83.6608C276.812 83.7695 275.457 83.6954 274.18 83.4216C269.179 94.5558 260.464 103.991 250.518 104.861C237.799 105.974 227.754 92.4944 230.855 75.0698C232.344 66.7485 236.344 58.4964 241.621 52.7345C246.55 47.3886 253.601 44.2662 260.329 44.0631C278.583 43.4297 281.661 60.9882 276.451 77.4409C277.537 77.7314 278.597 77.735 279.641 77.5473C284.085 76.5803 287.464 72.2373 289.042 68.2446ZM254.051 93.4702C258.284 93.389 263.234 89.3903 267.176 80.4688C259.597 75.3499 254.42 66.8408 253.355 57.9718C249.689 62.3399 246.965 68.6494 245.924 73.2697C243.215 85.2634 247.897 93.6232 254.051 93.4702ZM270.107 72.1176C272.033 65.4925 270.865 51.0433 262.433 51.5883C256.582 51.9074 265.795 72.3985 269.746 73.4983C269.896 73.0034 270.053 72.6041 270.107 72.1176ZM348.549 64.6766C349.361 66.2438 349.017 67.8158 348.385 69.4129C344.033 79.1413 335.866 95.949 324.702 97.2148C319.164 97.7957 315.703 95.6893 313.53 90.6757C308.726 79.8211 318.967 63.6028 321.76 52.5654C320.125 52.612 317.699 55.7153 314.782 59.8251C310.386 66.859 305.521 74.0304 301.645 81.5006C298.932 86.8453 296.249 91.4166 293.586 97.3352C291.335 102.447 289.984 103.529 288.533 103.463C286.396 103.264 283.23 101.229 281.288 99.953C279.345 98.6775 278.637 97.1975 280.912 90.1565C282.897 84.2008 285.197 77.4467 285.828 75.8496C289.404 67.1529 291.886 58.07 295.574 49.5562C296.608 47.0565 297.595 42.9227 301.699 42.4673C303.795 42.1876 306.669 43.0926 308.802 44.3514C311.639 45.9342 310.741 46.6873 309.654 49.6735C308.354 53.5455 306.768 57.4426 305.381 61.4185C305.502 61.6971 305.71 61.8716 305.901 61.8549C306.753 61.684 316.261 49.1918 318.102 47.1034C322.282 42.0157 327.207 37.7301 333.096 38.9495C339.575 40.31 339 45.8532 336.704 51.547C335.512 54.4459 330.869 65.2598 327.572 73.8358C325.072 80.511 323.191 86.5539 326.49 87.9036C333.618 90.0746 341.314 73.4044 344.097 67.7643C345.078 65.7512 346.274 64.0083 348.549 64.6766ZM409.342 59.3579C410.145 60.8295 409.81 62.4971 409.17 63.9986C407.716 67.2095 405.058 72.0677 403.284 74.9212C401.343 78.0783 399.482 81.0358 397.117 83.7482C392.746 88.8526 387.455 93.3629 380.568 91.749C375.852 90.7161 375.16 87.2111 372.476 84.073C369.579 87.3138 365.848 93.1331 357.362 94.1647C334.111 97.1626 340.659 55.2484 361.933 40.6668C365.661 38.1241 371.108 36.4912 376.314 36.5176C380.468 36.636 384.419 37.7358 387.252 40.379C388.84 38.6982 391.523 34.1269 395.241 34.7653C402.365 35.7803 398.585 43.2421 396.699 48.129C395.989 49.9258 391.351 61.8956 388.32 71.3156C386.203 77.9574 385.125 83.2555 388.289 83.075C389.636 83.0535 390.796 81.9884 393.655 79.4254C395.609 77.5199 397.67 74.6414 399.207 72.3868C401.592 68.8053 403.578 65.066 404.882 62.35C405.862 60.3369 407.059 58.594 409.342 59.3579ZM379.031 55.4568C380.732 48.466 380.629 42.8857 376.259 42.4971C363.139 41.2358 349.393 83.4906 359.851 82.9611C366.762 82.6456 376.027 67.3801 379.031 55.4568ZM458.281 48.427C461.248 44.8909 463.172 49.2519 461.905 51.2901C458.959 56.1734 454.74 59.7226 448.752 59.5719C445.954 59.5276 442.506 58.6728 439.977 56.1959C438.631 58.4337 437.276 60.5759 436.192 62.5017L423.724 84.1186C422.449 86.0612 419.109 91.9427 417.646 92.8416C401.691 102.14 405.762 47.3361 406.275 42.1838C407.309 31.9749 409.504 30.6264 414.811 31.8004C419.423 32.746 419.853 36.5631 419.511 42.5677C419.231 48.1815 418.762 73.6633 420.248 76.3279C422.901 75.8068 435.986 51.3412 435.24 48.3227C434.266 45.9988 433.253 39.92 434.643 34.8837C435.909 30.6291 438.581 27.0225 441.799 26.3555C443.129 26.1427 444.606 26.4954 446.078 27.9084C451.624 32.9162 446.545 44.25 443.483 50.0108C445.185 52.9456 447.876 53.9629 449.988 53.8745C453.527 53.5649 456.108 51.1226 458.281 48.427Z" fill="white"/>
</svg>
